# xmcd CD database file
# Copyright (C) 1993-1998 Ti Kan
#
# Track frame offsets:
#  150
#  12658
#  22965
#  36615
#  48815
#  61298
#  73295
#  86548
#  99815
#  110968
#  121400
#  133193
#
# Disc length: 1922 seconds
#
# Revision: 1
# Processed by: cddbd v1.4b41PL1 Copyright (c) Steve Scherf et al.
# Submitted via: KiC 2.1 - (C) 1996-1998 Alwin Hoogerdijk
#
DISCID=aa07800c
DTITLE=Bobby Hicks - Texas Crapshooter
DYEAR=1900
DGENRE=
TTITLE0=Panhandle Rag
TTITLE1=Goodbye Liza Jane
TTITLE2=Maiden's Prayer
TTITLE3=Cherokee Swing
TTITLE4=Texas Crapshooter
TTITLE5=Big Beaver
TTITLE6=Snowflake Breakdown
TTITLE7=Scotland
TTITLE8=Big Mon
TTITLE9=East Tennessee Blues
TTITLE10=Cheyenne
TTITLE11=Paddy on the Turnpike
EXTD=
EXTT0=
EXTT1=
EXTT2=
EXTT3=
EXTT4=
EXTT5=
EXTT6=
EXTT7=
EXTT8=
EXTT9=
EXTT10=
EXTT11=
PLAYORDER=
